<svg version="1.1" xmlns="http://www.w3.org/2000/svg" xmlns:xlink="http://www.w3.org/1999/xlink" x="0px" y="0px" width="370px" height="200px" viewBox="0 0 370 200" enable-background="new 0 0 370 200" xml:space="preserve">	 
	
	<!-- В секции defs определяются reusable элементы -->
	<defs>				
		<!-- стрелка -->		
		<path id="axisArrow" style="fill-rule:nonzero;fill:rgb(0,0,0);fill-opacity:1;stroke-width:0.03;stroke-linecap:square;stroke-linejoin:miter;stroke:rgb(0,0,0);stroke-opacity:1;stroke-miterlimit:3.25;" d="M 0.0 0.0 L 0.211 0.426 L 0.668 1.457 L 0.914 2.074 L 1.125 2.699 L 1.273 3.277 L 1.32 3.766 L 1.273 4.211 L 1.125 4.781 L 0.914 5.426 L 0.668 6.086 L 0.211 7.207 L 0.0 7.688 L 14.32 3.766 Z M 0.0 0.0" />		
		
		
		<!-- вертикальная засечка на оси -->
		<line id="verSerif" x1="0" y1="0" x2="0" y2="6" stroke="black" stroke-width="1" />
		
		<!-- горизонтальная засечка на оси -->
		<line id="horSerif" x1="0" y1="0" x2="6" y2="0" stroke="black" stroke-width="1" />
		
		<!-- горизонтальная ось -->
		<g id="xAxis">
			<line x1="10" y1="0" x2="360" y2="0" stroke="black" stroke-width="1" />
			<use xlink:href="#axisArrow" x="355.0" y="-3.65" />
			<text x="350" y="15" font-family="Times New Roman" font-style="italic" font-size="14">x</text>
			<!-- засечки на оси -->
			<use xlink:href="#verSerif" x="50" y="-3" />						
			<use xlink:href="#verSerif" x="126" y="-3" />
			<use xlink:href="#verSerif" x="197" y="-3" />
			<use xlink:href="#verSerif" x="293" y="-3" />
			
			<!-- цифры -->			
			<text x="45" y="14" font-family="Times New Roman" font-style="italic" font-size="14">x</text>			
			<text x="51" y="19" font-family="Times New Roman" font-size="10">1</text>
			
			<text x="122" y="14" font-family="Times New Roman" font-style="italic" font-size="14">x</text>
			<text x="128" y="19" font-family="Times New Roman" font-size="10">2</text>
			
			<text x="192" y="14" font-family="Times New Roman" font-style="italic" font-size="14">x</text>
			<text x="198" y="19" font-family="Times New Roman" font-size="10">3</text>
						
			<text x="288" y="-11" font-family="Times New Roman" font-style="italic" font-size="14">x</text>
			<text x="294" y="-7" font-family="Times New Roman" font-size="10">4</text>					
		</g>
				
		<!-- вертикальная ось -->
		<g id="yAxis">
			<line x1="-160" y1="0" x2="-160" y2="190" stroke="black" stroke-width="1" />							
			<use transform="rotate(-90)" xlink:href="#axisArrow" x="-7.0" y="-163.78" />
			<text x="-153" y="2" font-family="Times New Roman" font-style="italic" font-size="14">y</text>
			<!-- засечки на оси -->
			<use xlink:href="#horSerif" x="-163" y="33.5" />
			<use xlink:href="#horSerif" x="-163" y="88.5" />
			<use xlink:href="#horSerif" x="-163" y="123.5" />
			<use xlink:href="#horSerif" x="-163" y="175.5" />
			
			<!-- цифры -->
			<text x="-179" y="36" font-family="Times New Roman" font-style="italic" font-size="14">y</text>			
			<text x="-173" y="42" font-family="Times New Roman" font-size="10">1</text>
			
			<text x="-179" y="125" font-family="Times New Roman" font-style="italic" font-size="14">y</text>			
			<text x="-173" y="131" font-family="Times New Roman" font-size="10">2</text>
			
			<text x="-179" y="91" font-family="Times New Roman" font-style="italic" font-size="14">y</text>			
			<text x="-173" y="97" font-family="Times New Roman" font-size="10">3</text>
			
			<text x="-179" y="178" font-family="Times New Roman" font-style="italic" font-size="14">y</text>			
			<text x="-173" y="184" font-family="Times New Roman" font-size="10">4</text>
		</g>
		
	</defs>
	
	<!-- горизонтальная ось -->
	<use xlink:href="#xAxis" x="0.5" y="147.5" />
	
	<!-- вертикальная ось -->
	<use xlink:href="#yAxis" x="190.5" y="8.0" />
	
	<!-- функция -->
	<path transform="matrix(1,0,0,1,-46,-30)" style="fill:none;stroke-width:1.6;stroke-linecap:square;stroke-linejoin:miter;stroke:rgb(14%,53%,43%);stroke-opacity:1;stroke-miterlimit:3.25;" d="M 77.117188 116.023438 L 77.222656 115.46875 L 77.324219 114.914063 L 77.535156 113.820313 L 77.953125 111.6875 L 78.785156 107.621094 L 78.890625 107.128906 L 78.996094 106.644531 L 79.203125 105.683594 L 79.621094 103.816406 L 80.457031 100.261719 L 80.5625 99.835938 L 80.664063 99.414063 L 80.875 98.582031 L 81.292969 96.957031 L 82.125 93.890625 L 82.230469 93.523438 L 82.335938 93.160156 L 82.542969 92.445313 L 82.960938 91.054688 L 83.796875 88.4375 L 84.023438 87.765625 L 84.25 87.113281 L 84.703125 85.847656 L 85.605469 83.496094 L 85.71875 83.21875 L 85.832031 82.945313 L 86.058594 82.410156 L 86.511719 81.382813 L 87.417969 79.492188 L 87.644531 79.054688 L 87.871094 78.628906 L 88.324219 77.820313 L 88.4375 77.625 L 88.546875 77.433594 L 88.773438 77.0625 L 89.226563 76.355469 L 89.453125 76.019531 L 89.679688 75.699219 L 90.132813 75.089844 L 90.246094 74.945313 L 90.359375 74.804688 L 90.585938 74.527344 L 91.039063 74.015625 L 91.25 73.789063 L 91.460938 73.578125 L 91.882813 73.175781 L 91.988281 73.082031 L 92.09375 72.992188 L 92.304688 72.816406 L 92.726563 72.492188 L 92.835938 72.417969 L 93.152344 72.207031 L 93.257813 72.140625 L 93.363281 72.078125 L 93.574219 71.957031 L 93.679688 71.898438 L 93.785156 71.84375 L 93.996094 71.742188 L 94.207031 71.648438 L 94.417969 71.5625 L 94.628906 71.484375 L 94.839844 71.414063 L 94.945313 71.382813 L 95.050781 71.355469 L 95.265625 71.300781 L 95.371094 71.277344 L 95.6875 71.21875 L 95.792969 71.203125 L 96.003906 71.179688 L 96.320313 71.15625 L 96.425781 71.152344 L 96.742188 71.152344 L 96.847656 71.15625 L 97.164063 71.179688 L 97.375 71.203125 L 97.484375 71.21875 L 97.589844 71.234375 L 97.800781 71.273438 L 97.902344 71.296875 L 98.007813 71.320313 L 98.214844 71.371094 L 98.316406 71.398438 L 98.421875 71.429688 L 98.628906 71.492188 L 98.730469 71.527344 L 98.835938 71.5625 L 99.042969 71.640625 L 99.457031 71.8125 L 99.558594 71.859375 L 99.664063 71.910156 L 99.871094 72.011719 L 100.285156 72.234375 L 100.390625 72.292969 L 100.492188 72.355469 L 100.699219 72.480469 L 101.113281 72.746094 L 101.21875 72.816406 L 101.320313 72.890625 L 101.527344 73.039063 L 101.941406 73.347656 L 102.769531 74.035156 L 102.875 74.128906 L 102.976563 74.21875 L 103.183594 74.410156 L 103.601563 74.804688 L 104.429688 75.644531 L 104.539063 75.765625 L 104.652344 75.886719 L 104.878906 76.132813 L 105.328125 76.640625 L 106.226563 77.710938 L 108.023438 80.074219 L 108.25 80.386719 L 108.472656 80.703125 L 108.921875 81.351563 L 109.820313 82.6875 L 111.617188 85.523438 L 112.039063 86.210938 L 112.457031 86.910156 L 113.296875 88.332031 L 114.972656 91.277344 L 118.328125 97.460938 L 125.601563 111.488281 L 132.742188 124.925781 L 132.847656 125.113281 L 132.949219 125.300781 L 133.160156 125.675781 L 133.574219 126.421875 L 134.40625 127.894531 L 136.074219 130.773438 L 139.402344 136.238281 L 139.628906 136.589844 L 139.855469 136.945313 L 140.304688 137.640625 L 141.207031 139.015625 L 143.011719 141.652344 L 143.238281 141.972656 L 143.464844 142.289063 L 143.917969 142.914063 L 144.820313 144.140625 L 146.625 146.480469 L 146.730469 146.609375 L 146.835938 146.742188 L 147.46875 147.515625 L 148.308594 148.515625 L 149.996094 150.414063 L 150.417969 150.867188 L 150.839844 151.308594 L 151.679688 152.167969 L 153.367188 153.773438 L 153.46875 153.867188 L 153.574219 153.960938 L 153.78125 154.144531 L 154.191406 154.507813 L 155.019531 155.207031 L 155.121094 155.292969 L 155.226563 155.375 L 155.433594 155.542969 L 155.84375 155.871094 L 156.671875 156.496094 L 156.773438 156.574219 L 156.878906 156.648438 L 157.085938 156.796875 L 157.496094 157.089844 L 158.324219 157.648438 L 159.976563 158.65625 L 160.089844 158.71875 L 160.199219 158.78125 L 160.425781 158.90625 L 160.871094 159.144531 L 161.769531 159.59375 L 161.882813 159.644531 L 161.992188 159.699219 L 162.21875 159.800781 L 162.664063 160 L 163.5625 160.367188 L 163.675781 160.410156 L 163.785156 160.453125 L 164.011719 160.535156 L 164.457031 160.695313 L 164.570313 160.734375 L 164.683594 160.769531 L 164.90625 160.84375 L 165.355469 160.980469 L 165.464844 161.015625 L 165.804688 161.109375 L 166.25 161.230469 L 166.476563 161.285156 L 166.699219 161.339844 L 167.148438 161.441406 L 167.253906 161.460938 L 167.355469 161.484375 L 167.566406 161.527344 L 167.984375 161.601563 L 168.089844 161.621094 L 168.191406 161.636719 L 168.402344 161.671875 L 168.820313 161.730469 L 168.925781 161.746094 L 169.03125 161.757813 L 169.238281 161.785156 L 169.449219 161.808594 L 169.65625 161.828125 L 169.761719 161.835938 L 169.867188 161.847656 L 169.96875 161.855469 L 170.285156 161.878906 L 170.492188 161.894531 L 170.703125 161.902344 L 170.808594 161.910156 L 170.910156 161.914063 L 171.226563 161.925781 L 171.328125 161.925781 L 171.433594 161.929688 L 171.644531 161.929688 L 171.746094 161.933594 L 171.851563 161.933594 L 171.957031 161.929688 L 172.167969 161.929688 L 172.269531 161.925781 L 172.375 161.925781 L 172.585938 161.917969 L 172.6875 161.914063 L 173.003906 161.902344 L 173.105469 161.898438 L 173.316406 161.882813 L 173.421875 161.878906 L 173.523438 161.871094 L 173.628906 161.863281 L 173.839844 161.84375 L 173.953125 161.835938 L 174.519531 161.777344 L 174.746094 161.75 L 174.859375 161.738281 L 175.199219 161.691406 L 175.652344 161.621094 L 175.765625 161.605469 L 176.105469 161.546875 L 176.558594 161.460938 L 176.671875 161.441406 L 177.011719 161.371094 L 177.464844 161.269531 L 177.578125 161.246094 L 177.917969 161.164063 L 178.371094 161.046875 L 179.277344 160.792969 L 179.390625 160.761719 L 179.730469 160.65625 L 180.1875 160.511719 L 181.09375 160.203125 L 181.203125 160.160156 L 181.316406 160.121094 L 181.539063 160.039063 L 181.980469 159.871094 L 182.871094 159.515625 L 184.652344 158.726563 L 184.765625 158.675781 L 184.875 158.621094 L 185.097656 158.515625 L 185.542969 158.300781 L 186.433594 157.851563 L 188.214844 156.890625 L 188.316406 156.832031 L 188.421875 156.773438 L 188.628906 156.652344 L 189.042969 156.414063 L 189.875 155.925781 L 191.535156 154.898438 L 194.855469 152.699219 L 202.054688 147.433594 L 208.777344 142.292969 L 216.0625 136.972656 L 216.175781 136.898438 L 216.289063 136.820313 L 216.957031 136.363281 L 217.851563 135.761719 L 219.640625 134.601563 L 219.75 134.53125 L 219.863281 134.460938 L 220.085938 134.320313 L 220.535156 134.039063 L 221.429688 133.496094 L 223.214844 132.457031 L 223.425781 132.339844 L 223.632813 132.222656 L 224.050781 131.996094 L 224.882813 131.546875 L 226.550781 130.703125 L 226.65625 130.65625 L 226.761719 130.605469 L 226.96875 130.503906 L 227.386719 130.308594 L 228.21875 129.929688 L 229.886719 129.230469 L 230 129.1875 L 230.113281 129.140625 L 230.792969 128.882813 L 231.695313 128.558594 L 231.921875 128.480469 L 232.601563 128.257813 L 233.503906 127.984375 L 233.617188 127.949219 L 234.410156 127.730469 L 234.523438 127.703125 L 234.636719 127.671875 L 234.859375 127.617188 L 235.539063 127.453125 L 235.765625 127.402344 L 236.21875 127.308594 L 237.121094 127.132813 L 237.226563 127.117188 L 237.332031 127.097656 L 237.542969 127.0625 L 237.964844 126.996094 L 238.175781 126.964844 L 238.808594 126.882813 L 239.019531 126.859375 L 239.234375 126.835938 L 239.445313 126.8125 L 239.65625 126.792969 L 239.761719 126.785156 L 239.867188 126.773438 L 240.5 126.726563 L 240.605469 126.722656 L 240.816406 126.707031 L 241.660156 126.675781 L 241.765625 126.675781 L 241.871094 126.671875 L 242.1875 126.671875 L 242.292969 126.667969 L 242.398438 126.671875 L 242.714844 126.671875 L 242.820313 126.675781 L 242.925781 126.675781 L 243.136719 126.683594 L 243.242188 126.683594 L 243.453125 126.691406 L 243.558594 126.699219 L 243.664063 126.703125 L 243.875 126.714844 L 243.980469 126.71875 L 244.082031 126.726563 L 244.289063 126.738281 L 244.394531 126.746094 L 244.496094 126.753906 L 244.703125 126.769531 L 244.808594 126.78125 L 244.910156 126.789063 L 245.117188 126.808594 L 245.53125 126.855469 L 245.632813 126.867188 L 245.738281 126.878906 L 246.359375 126.960938 L 246.460938 126.976563 L 246.566406 126.992188 L 246.773438 127.023438 L 247.1875 127.09375 L 247.289063 127.113281 L 247.394531 127.132813 L 247.601563 127.171875 L 248.015625 127.253906 L 248.117188 127.273438 L 248.222656 127.296875 L 248.429688 127.339844 L 248.84375 127.433594 L 248.945313 127.460938 L 249.050781 127.484375 L 249.253906 127.535156 L 249.667969 127.644531 L 250.496094 127.875 L 250.722656 127.945313 L 250.945313 128.011719 L 251.394531 128.15625 L 252.292969 128.46875 L 252.40625 128.511719 L 252.519531 128.550781 L 252.742188 128.636719 L 253.191406 128.808594 L 254.089844 129.179688 L 254.203125 129.230469 L 254.3125 129.277344 L 254.539063 129.378906 L 254.988281 129.582031 L 255.886719 130.011719 L 257.679688 130.960938 L 257.890625 131.078125 L 258.097656 131.199219 L 258.519531 131.445313 L 259.355469 131.953125 L 261.03125 133.042969 L 261.136719 133.117188 L 261.242188 133.1875 L 261.453125 133.332031 L 261.871094 133.625 L 262.707031 134.234375 L 264.382813 135.523438 L 264.609375 135.703125 L 264.839844 135.886719 L 265.292969 136.261719 L 266.199219 137.023438 L 268.015625 138.636719 L 271.648438 142.167969 L 271.761719 142.285156 L 271.871094 142.398438 L 272.09375 142.628906 L 272.539063 143.097656 L 273.433594 144.046875 L 275.214844 146.011719 L 278.78125 150.183594 L 285.433594 158.707031 L 292.648438 168.683594 L 299.382813 178.265625 L 305.984375 187.453125 L 313.148438 196.644531 L 313.359375 196.894531 L 313.566406 197.140625 L 313.984375 197.636719 L 314.820313 198.605469 L 316.492188 200.484375 L 316.597656 200.601563 L 316.699219 200.714844 L 316.910156 200.941406 L 317.328125 201.390625 L 318.164063 202.269531 L 319.835938 203.957031 L 319.949219 204.066406 L 320.058594 204.175781 L 320.285156 204.394531 L 320.738281 204.824219 L 321.644531 205.660156 L 323.457031 207.222656 L 323.683594 207.410156 L 324.363281 207.949219 L 325.269531 208.640625 L 327.078125 209.898438 L 327.1875 209.96875 L 327.503906 210.167969 L 327.925781 210.429688 L 328.773438 210.925781 L 328.984375 211.042969 L 329.195313 211.15625 L 329.617188 211.378906 L 330.464844 211.796875 L 330.570313 211.84375 L 330.675781 211.894531 L 330.886719 211.988281 L 331.308594 212.171875 L 331.730469 212.34375 L 332.15625 212.507813 L 332.261719 212.546875 L 332.367188 212.582031 L 332.578125 212.65625 L 333 212.800781 L 333.105469 212.832031 L 333.210938 212.867188 L 333.421875 212.929688 L 333.847656 213.046875 L 333.949219 213.078125 L 334.054688 213.101563 L 334.261719 213.15625 L 334.363281 213.179688 L 334.46875 213.203125 L 334.675781 213.25 L 334.777344 213.273438 L 334.882813 213.292969 L 335.089844 213.335938 L 335.503906 213.410156 L 335.609375 213.425781 L 335.710938 213.441406 L 335.917969 213.472656 L 336.023438 213.488281 L 336.125 213.5 L 336.332031 213.527344 L 336.4375 213.535156 L 336.539063 213.546875 L 336.644531 213.558594 L 336.75 213.566406 L 336.851563 213.574219 L 336.957031 213.582031 L 337.058594 213.589844 L 337.164063 213.597656 L 337.265625 213.601563 L 337.371094 213.605469 L 337.472656 213.613281 L 337.578125 213.613281 L 337.679688 213.617188 L 337.785156 213.621094 L 338.304688 213.621094 L 338.40625 213.617188 L 338.511719 213.613281 L 338.613281 213.609375 L 338.71875 213.605469 L 338.820313 213.601563 L 338.925781 213.597656 L 339.027344 213.589844 L 339.132813 213.582031 L 339.234375 213.574219 L 339.339844 213.566406 L 339.441406 213.554688 L 339.648438 213.535156 L 339.859375 213.511719 L 340.066406 213.484375 L 340.167969 213.46875 L 340.273438 213.453125 L 340.480469 213.421875 L 340.59375 213.402344 L 340.703125 213.378906 L 340.929688 213.335938 L 341.042969 213.316406 L 341.152344 213.292969 L 341.378906 213.242188 L 341.605469 213.1875 L 341.828125 213.128906 L 342.277344 213.003906 L 342.390625 212.972656 L 342.503906 212.9375 L 342.726563 212.863281 L 343.175781 212.710938 L 343.289063 212.667969 L 343.402344 212.628906 L 343.628906 212.542969 L 344.078125 212.355469 L 344.191406 212.308594 L 344.300781 212.257813 L 344.527344 212.15625 L 344.976563 211.941406 L 345.203125 211.832031 L 345.425781 211.714844 L 345.875 211.46875 L 345.988281 211.40625 L 346.101563 211.339844 L 346.324219 211.210938 L 346.773438 210.933594 L 347.675781 210.335938 L 347.78125 210.261719 L 347.882813 210.1875 L 348.09375 210.035156 L 348.515625 209.722656 L 349.355469 209.054688 L 349.457031 208.964844 L 349.5625 208.878906 L 349.773438 208.699219 L 350.191406 208.328125 L 351.03125 207.546875 L 351.242188 207.34375 L 351.453125 207.136719 L 351.871094 206.710938 L 352.710938 205.820313 L 354.390625 203.863281 L 354.503906 203.722656 L 354.617188 203.578125 L 354.84375 203.292969 L 355.300781 202.707031 L 356.210938 201.480469 L 358.027344 198.832031 L 358.140625 198.65625 L 358.257813 198.480469 L 358.484375 198.125 L 358.9375 197.402344 L 359.847656 195.90625 L 361.667969 192.707031 L 361.777344 192.503906 L 361.890625 192.296875 L 362.113281 191.882813 L 362.558594 191.039063 L 363.453125 189.304688 L 365.238281 185.640625 L 368.8125 177.539063 L 368.914063 177.289063 L 369.019531 177.035156 L 369.226563 176.53125 L 369.644531 175.507813 L 370.476563 173.417969 L 372.144531 169.082031 L 375.476563 159.796875 L 382.703125 137.089844 L 389.449219 113.339844 L 396.0625 88.625 L 403.238281 61.667969 L 403.34375 61.285156 L 403.449219 60.898438 L 403.660156 60.132813" />
	
	<!-- вертикальные пунктирные линии -->
	<line x1="50.5" y1="41.5" x2="50.5" y2="148" stroke="black" stroke-width="1" stroke-dasharray="3 4" />
	<line x1="126.5" y1="131.5" x2="126.5" y2="148" stroke="black" stroke-width="1" stroke-dasharray="3 4" />
	<line x1="197.5" y1="96" x2="197.5" y2="148" stroke="black" stroke-width="1" stroke-dasharray="3 4" />
	<line x1="293.5" y1="148" x2="293.5" y2="183.5" stroke="black" stroke-width="1" stroke-dasharray="3 4" />
	
	<!-- горизонтальные пунктирные линии -->
	<line x1="30.5" y1="41.5" x2="50.5" y2="41.5" stroke="black" stroke-width="1" stroke-dasharray="3 4" />
	<line x1="30.5" y1="131.5" x2="126.5" y2="131.5" stroke="black" stroke-width="1" stroke-dasharray="3 4" />
	<line x1="30.5" y1="96.5" x2="197.5" y2="96.5" stroke="black" stroke-width="1" stroke-dasharray="3 4" />
	<line x1="30.5" y1="183.5" x2="293.5" y2="183.5" stroke="black" stroke-width="1" stroke-dasharray="3 4" />	
	
	<!-- точки экстремумов функции -->
	<circle cx="50.5" cy="41.5" r="5" style="fill:rgb(252,130,0);" />
	<circle cx="126" cy="131.5" r="5" style="fill:rgb(252,130,0);" />
	<circle cx="197" cy="96.5" r="5" style="fill:rgb(252,130,0);" />
	<circle cx="293.5" cy="183" r="5" style="fill:rgb(252,130,0);" />	
		
</svg>
